<mxfile host="65bd71144e">
    <diagram id="PEog2f1BHxm9Cj_1qFBs" name="Page-1">
        <mxGraphModel dx="422" dy="330" grid="1" gridSize="10" guides="1" tooltips="1" connect="1" arrows="1" fold="1" page="0" pageScale="1" pageWidth="850" pageHeight="1100" background="none" math="0" shadow="0">
            <root>
                <mxCell id="0"/>
                <mxCell id="1" parent="0"/>
                <mxCell id="4" style="edgeStyle=orthogonalEdgeStyle;orthogonalLoop=1;jettySize=auto;html=1;entryX=0;entryY=0.5;entryDx=0;entryDy=0;strokeWidth=3;curved=1;strokeColor=#FF6392;fontColor=#5AA9E6;" edge="1" parent="1" source="2" target="3">
                    <mxGeometry relative="1" as="geometry"/>
                </mxCell>
                <mxCell id="2" value="User" style="rounded=0;whiteSpace=wrap;html=1;fillColor=#FFE45E;strokeColor=#FF6392;fontColor=#5AA9E6;" vertex="1" parent="1">
                    <mxGeometry x="30" y="140" width="120" height="60" as="geometry"/>
                </mxCell>
                <mxCell id="3" value="Email" style="ellipse;whiteSpace=wrap;html=1;strokeWidth=2;fillColor=#FFE45E;strokeColor=#FF6392;fontColor=#5AA9E6;" vertex="1" parent="1">
                    <mxGeometry x="210" y="50" width="120" height="80" as="geometry"/>
                </mxCell>
                <mxCell id="6" style="edgeStyle=orthogonalEdgeStyle;orthogonalLoop=1;jettySize=auto;html=1;strokeWidth=3;curved=1;strokeColor=#FF6392;fontColor=#5AA9E6;" edge="1" parent="1" source="5" target="2">
                    <mxGeometry relative="1" as="geometry"/>
                </mxCell>
                <mxCell id="5" value="Password" style="triangle;whiteSpace=wrap;html=1;strokeWidth=2;direction=north;fillColor=#FFE45E;strokeColor=#FF6392;fontColor=#5AA9E6;" vertex="1" parent="1">
                    <mxGeometry x="140" y="240" width="150" height="60" as="geometry"/>
                </mxCell>
            </root>
        </mxGraphModel>
    </diagram>
</mxfile>